<svg id="그룹_5353" data-name="그룹 5353" xmlns="http://www.w3.org/2000/svg" xmlns:xlink="http://www.w3.org/1999/xlink" width="156" height="40" viewBox="0 0 156 40">
  <defs>
    <linearGradient id="linear-gradient" x1="0.45" y1="0.086" x2="0.452" y2="1.086" gradientUnits="objectBoundingBox">
      <stop offset="0" stop-color="#f2a726"/>
      <stop offset="1" stop-color="#e9365e"/>
    </linearGradient>
    <linearGradient id="linear-gradient-2" x1="0.449" y1="0.112" x2="0.451" y2="1.112" xlink:href="#linear-gradient"/>
    <linearGradient id="linear-gradient-3" x1="0.449" y1="0.081" x2="0.452" y2="1.081" xlink:href="#linear-gradient"/>
    <linearGradient id="linear-gradient-4" x1="0.888" y1="0.918" x2="0.197" y2="0.193" xlink:href="#linear-gradient"/>
  </defs>
  <g id="그룹_587" data-name="그룹 587" transform="translate(88.643 5.804)">
    <path id="패스_486" data-name="패스 486" d="M284.646,118.478l10.276.02a13.432,13.432,0,0,1,5.925,1.216,8.8,8.8,0,0,1,3.787,3.391,9.734,9.734,0,0,1,1.3,5.112,9.867,9.867,0,0,1-1.324,5.155,8.749,8.749,0,0,1-3.8,3.393,13.458,13.458,0,0,1-5.931,1.191l-4.3-.008-.014,7.062L284.592,145Zm9.982,14.241a5.929,5.929,0,0,0,3.928-1.164,4.121,4.121,0,0,0,1.4-3.349,4.036,4.036,0,0,0-1.389-3.323,6.046,6.046,0,0,0-3.921-1.147l-4.037-.008-.02,8.982Z" transform="translate(-284.592 -118.478)" fill="url(#linear-gradient)"/>
    <path id="패스_487" data-name="패스 487" d="M337.656,152.061a8.8,8.8,0,0,1-3.308-3.57,11.761,11.761,0,0,1,.02-10.283,8.813,8.813,0,0,1,3.324-3.557,9.24,9.24,0,0,1,4.862-1.276,6.454,6.454,0,0,1,5.513,2.42l0-1.953,5.847.011-.042,19.07-5.844-.011.005-1.953a6.453,6.453,0,0,1-5.522,2.4A9.249,9.249,0,0,1,337.656,152.061Zm9.2-5.058a5.776,5.776,0,0,0,.018-7.258,4.384,4.384,0,0,0-3.413-1.422,4.2,4.2,0,0,0-3.319,1.409,5.893,5.893,0,0,0-.014,7.257,4.2,4.2,0,0,0,3.313,1.422A4.379,4.379,0,0,0,346.861,147Z" transform="translate(-309.938 -126.691)" fill="url(#linear-gradient-2)"/>
    <path id="패스_488" data-name="패스 488" d="M402.608,134.434,391.49,161.423l-5.749-.012,3.5-8.453-7.548-18.565,6.471.012,4.146,11.789,4.228-11.772Z" transform="translate(-335.251 -127.227)" fill="url(#linear-gradient-3)"/>
  </g>
  <path id="패스_489" data-name="패스 489" d="M116.021,104.818h0A16.625,16.625,0,0,0,99.29,121.333h0l-.034,16.548,16.7.033h0A16.624,16.624,0,0,0,132.686,121.4h0A16.624,16.624,0,0,0,116.021,104.818Z" transform="translate(-99.256 -104.818)" fill="#444"/>
  <path id="패스_490" data-name="패스 490" d="M180.5,129.949a1.531,1.531,0,0,0-1.535,1.521v18.194a1.535,1.535,0,0,0,3.07,0V131.47A1.53,1.53,0,0,0,180.5,129.949Z" transform="translate(-140.84 -118.018)" fill="#444"/>
  <path id="패스_491" data-name="패스 491" d="M208.556,140.573a1.531,1.531,0,0,0-1.536,1.522v6.662a5.918,5.918,0,0,1-.606,2.644,5.091,5.091,0,0,1-1.652,1.958,4.027,4.027,0,0,1-2.35.728,3.655,3.655,0,0,1-2.92-1.225,5.3,5.3,0,0,1-1.057-3.533v-7.233a1.535,1.535,0,0,0-3.07,0v7.724a7.909,7.909,0,0,0,.811,3.664,5.91,5.91,0,0,0,2.287,2.432,7.041,7.041,0,0,0,6.748,0,6.065,6.065,0,0,0,1.81-1.6v.559a1.535,1.535,0,0,0,3.07,0V142.095A1.529,1.529,0,0,0,208.556,140.573Z" transform="translate(-149.398 -124.684)" fill="#444"/>
  <path id="패스_492" data-name="패스 492" d="M248.349,148.321a11,11,0,0,0-4.978-1.6,11.5,11.5,0,0,1-3.763-.965,1.683,1.683,0,0,1-.97-1.5c0-.54.343-.987,1.05-1.367a5.816,5.816,0,0,1,2.76-.585,6.076,6.076,0,0,1,2.858.612,2.366,2.366,0,0,1,1.037.943,1.368,1.368,0,0,0,1.242.679,1.421,1.421,0,0,0,1.284-.794,1.406,1.406,0,0,0-.152-1.5q-.1-.119-.2-.237a6.349,6.349,0,0,0-2.506-1.639h0a9.775,9.775,0,0,0-3.48-.593,10.277,10.277,0,0,0-3.5.565,5.853,5.853,0,0,0-2.483,1.628,3.65,3.65,0,0,0-.921,2.448,3.759,3.759,0,0,0,1.562,3.215,10.77,10.77,0,0,0,4.81,1.561,12.513,12.513,0,0,1,3.823.927,1.639,1.639,0,0,1,1.048,1.463,1.831,1.831,0,0,1-1.146,1.6,6.184,6.184,0,0,1-2.994.653,5.7,5.7,0,0,1-3.056-.7,2.818,2.818,0,0,1-1.034-1.043,1.412,1.412,0,0,0-1.266-.7,1.488,1.488,0,0,0-1.3.765,1.336,1.336,0,0,0,.033,1.382,4.84,4.84,0,0,0,.355.485,6.068,6.068,0,0,0,2.508,1.723,10.092,10.092,0,0,0,3.673.621,10.706,10.706,0,0,0,3.642-.593,6.2,6.2,0,0,0,2.622-1.709,3.913,3.913,0,0,0,.976-2.638A3.69,3.69,0,0,0,248.349,148.321Z" transform="translate(-170.4 -124.262)" fill="#444"/>
  <path id="패스_493" data-name="패스 493" d="M125.426,123.012a7.8,7.8,0,0,0-7.837,7.735l0,.869,3.092.007,0-.869a4.729,4.729,0,1,1,4.719,4.7h-.238v.011c-.042,0-.082-.012-.124-.012a1.534,1.534,0,1,0,0,3.068c.04,0,.079-.009.118-.012v.01h.554v-.007a7.749,7.749,0,0,0-.285-15.5Z" transform="translate(-108.819 -114.377)" fill="#fff"/>
  <path id="패스_494" data-name="패스 494" d="M128.2,138.848v.019a1.579,1.579,0,0,1,.2-.02c.044,0,.083.009.124.012v-.011h.239a4.686,4.686,0,1,0-4.72-4.7l0,.869-.007,3.816Z" transform="translate(-112.184 -117.778)" fill="none"/>
  <path id="패스_495" data-name="패스 495" d="M118.911,143.239v-.019l-4.167-.008.008-3.816h-.012c0-.025.007-.048.007-.073a1.548,1.548,0,0,0-3.1,0c0,.023.005.045.006.068a1.531,1.531,0,0,0,0,.322l-.007,3.494-3.875-.008h-.341v.039a1.528,1.528,0,0,0-.006,2.988v.038h.317l.026,0,.026,0,3.846.008-.009,4.041,3.092.006.009-4.042,4.168.008v-.019a1.524,1.524,0,0,1,.005-3.027Z" transform="translate(-102.893 -122.143)" fill="url(#linear-gradient-4)"/>
  <path id="패스_496" data-name="패스 496" d="M119.085,163.892h0a1.541,1.541,0,0,1-1.548-1.534h0a1.541,1.541,0,0,1,1.548-1.534h0a1.541,1.541,0,0,1,1.548,1.534h0A1.541,1.541,0,0,1,119.085,163.892Z" transform="translate(-108.793 -134.256)" fill="#fff"/>
  <path id="패스_497" data-name="패스 497" d="M198.4,131.452a1.517,1.517,0,1,1-1.518-1.5A1.511,1.511,0,0,1,198.4,131.452Z" transform="translate(-149.398 -119.108)" fill="#444"/>
  <path id="패스_498" data-name="패스 498" d="M222.374,131.452a1.517,1.517,0,1,1-1.516-1.5A1.51,1.51,0,0,1,222.374,131.452Z" transform="translate(-161.906 -119.108)" fill="#444"/>
</svg>
